<svg width="95" height="91" viewBox="0 0 95 91" fill="none" xmlns="http://www.w3.org/2000/svg">
<path d="M67.5629 90.484H48.2398V57.5101H42.0483C39.8567 57.5101 38.1904 60.0415 37.6737 61.0715C33.9768 68.4396 25.9929 83.7497 24.1422 86.7259C22.2916 89.7023 19.5953 90.4352 18.3026 90.484H0C5.73798 80.2951 16.3753 61.9861 17.6816 59.4768C19.4161 56.1447 22.9816 53.4603 24.0702 53.2901C20.1905 52.0772 14.7141 47.766 13.6106 46.1901C12.4956 44.5977 4.24238 35.9695 8.70821 19.6284C13.1896 3.23016 29.8165 2.16762 32.9586 1.96739C39.5604 1.54667 52.1076 1.54667 57.401 1.54667C63.0083 1.54667 64.0715 4.40748 64.6343 7.38001C65.1765 14.5767 66.0729 15.0684 66.0729 15.0684C72.8768 1.42663 81.9383 0.077474 85.0001 0.00452403C87.4495 -0.0538368 91.8675 0.432454 95 2.63434L93.6903 22.3477C92.4628 26.7724 87.4988 25.3387 87.4988 25.3387C73.401 22.5957 68.334 31.6854 67.5629 36.5731V90.484Z" fill="white"/>
</svg>
