<?xml version="1.0" encoding="UTF-8" standalone="no"?><!DOCTYPE svg PUBLIC "-//W3C//DTD SVG 1.1//EN" "http://www.w3.org/Graphics/SVG/1.1/DTD/svg11.dtd"><svg width="100%" height="100%" viewBox="0 0 850 851" version="1.1" xmlns="http://www.w3.org/2000/svg" xmlns:xlink="http://www.w3.org/1999/xlink" xml:space="preserve" xmlns:serif="http://www.serif.com/" style="fill-rule:evenodd;clip-rule:evenodd;stroke-linejoin:round;stroke-miterlimit:2;"><g id="Venezia"><path d="M135.854,328.895l9.41,0l9.894,8.248l36.122,-5.947l-53.62,-40.133l-16.646,6.447l-36.966,76.037l23.595,13.635l28.211,-58.287Z" style="fill:#8a90ab;fill-opacity:0.35;fill-rule:nonzero;"/><path d="M366.602,412.762l16.727,1.398l-3.082,-9.566l22.05,-39.215c-2.392,-1.56 -4.65,-3.33 -7.058,-5.193l-28.637,52.576Z" style="fill:#8a90ab;fill-opacity:0.35;fill-rule:nonzero;"/><path d="M323.614,457.848l25.793,8.393c0.756,-1.625 2.081,-3.071 4.337,-4.373c1.181,-0.692 2.385,-1.368 3.613,-2.075l-26.662,-20.066l-7.081,18.121Z" style="fill:#8a90ab;fill-opacity:0.35;fill-rule:nonzero;"/><path d="M385.866,412.377l26.532,-41.58c-1.741,-1.061 -3.396,-1.945 -4.849,-2.557c-0.941,-0.418 -1.839,-0.867 -2.707,-1.351l-21.37,38.011l2.394,7.477Z" style="fill:#8a90ab;fill-opacity:0.35;fill-rule:nonzero;"/><path d="M425.947,380.879c-3.688,-3.184 -7.502,-6.127 -11.043,-8.475l-27.857,43.639l3.91,12.123l34.99,-47.287Z" style="fill:#8a90ab;fill-opacity:0.35;fill-rule:nonzero;"/><path d="M351.271,480.004c-1.654,-4.439 -2.739,-7.977 -2.578,-10.869l-40.337,-13.137l-8.577,17.91l-32.299,14.119l18.342,8.071l65.449,-16.094Z" style="fill:#8a90ab;fill-opacity:0.35;fill-rule:nonzero;"/><path d="M354.451,490.118c-0.707,-2.734 -1.414,-5.258 -2.152,-7.299l-64.204,15.787l3.453,5.196l62.903,-13.684Z" style="fill:#8a90ab;fill-opacity:0.35;fill-rule:nonzero;"/><path d="M363.188,415.463l-1.381,-0.113l0.755,-1.399l-4.425,-10.756l-13.442,-1.285l-10.697,9.227l-15.257,-11.494l-11.765,18.521l53.207,40.037c1.913,-1.093 3.962,-2.218 6.209,-3.392l-14.046,-22.657l2.531,-1.558l14.166,22.848c2.416,-1.239 5.108,-2.557 8.111,-3.989l-13.966,-33.99Z" style="fill:#8a90ab;fill-opacity:0.35;fill-rule:nonzero;"/><path d="M392.082,431.655l3.325,10.371c11.924,-3.715 23.761,-5.482 32.434,-9.262c11.381,-4.953 14.847,-22.798 15.339,-30.228c0.273,-4.002 -6.69,-12.203 -14.994,-19.68l-36.104,48.799Z" style="fill:#8a90ab;fill-opacity:0.35;fill-rule:nonzero;"/><path d="M286.215,476.594l11.356,-4.969l8.054,-16.785l-23.586,-12.283l0.338,12.83l-9.46,2.041l13.298,19.166Z" style="fill:#8a90ab;fill-opacity:0.35;fill-rule:nonzero;"/><path d="M221.475,499.008l41.879,-12.428l20.067,-8.763l-13.651,-19.713l-31.118,6.705l-17.177,22.943l0,11.256Z" style="fill:#8a90ab;fill-opacity:0.35;fill-rule:nonzero;"/><path d="M308.043,446.27l-20.35,-14.277l3.888,-14.6l-5.855,-23.105c-3.163,4.003 -6.16,7.605 -8.617,10.017l4.754,34.793l24.742,12.912l1.438,-5.74Z" style="fill:#8a90ab;fill-opacity:0.35;fill-rule:nonzero;"/><path d="M238.804,461.754l40.538,-8.764l-0.337,-12.814l-1.374,-10.113l-44.994,12.701l6.167,18.99Z" style="fill:#8a90ab;fill-opacity:0.35;fill-rule:nonzero;"/><path d="M356.395,497.53c-0.426,-1.527 -0.813,-3.039 -1.197,-4.535l-59.056,12.848l44.954,16.753l15.298,-25.066Z" style="fill:#8a90ab;fill-opacity:0.35;fill-rule:nonzero;"/><path d="M294.632,417.409l-3.541,13.346l20.333,14.261l-2.063,8.186l11.418,3.728l7.454,-19.052l-25.241,-19.004l14.969,-23.541l15.916,11.978l6.721,-5.771l-1.879,-0.193l-27.359,-35.518c-1.678,1.125 -3.003,1.994 -3.775,2.412c-3.557,1.865 -11.788,13.121 -19.538,23.088l6.585,26.08Z" style="fill:#8a90ab;fill-opacity:0.35;fill-rule:nonzero;"/><path d="M218.502,501.018l0,-1.125l0,-13.121l0.299,-0.4l17.352,-23.17l-6.793,-20.936l-12.953,-30.371l33.391,-36.291c-1.703,-3.279 -2.979,-5.947 -3.573,-7.252c-2.98,-6.447 -27.723,-31.707 -35.64,-37.654c0,0 -2.971,-6.434 -7.919,4.951c-4.954,11.4 -48.993,9.92 -48.993,9.92l-56.414,110.976l27.216,21.305l45.083,-94.447l20.236,11.705l-47.926,98.707l11.805,6.834l49.483,-95.137l2.972,18.635l-16.334,21.496c0,0 -25.231,54.01 -29.407,59.203c-4.159,5.193 11.595,6.688 18.028,12.139c5.308,4.486 27.055,-0.436 40.087,-3.971l0,-11.996Z" style="fill:#8a90ab;fill-opacity:0.35;fill-rule:nonzero;"/><path d="M219.892,412.504l11.717,27.463l45.613,-12.863l-2.923,-21.465c-6.809,0.58 -16.855,-15.725 -23.032,-27.252l-31.375,34.117Z" style="fill:#8a90ab;fill-opacity:0.35;fill-rule:nonzero;"/><path d="M339.724,525.248l-48.963,-18.232l-0.554,0.128l-5.518,-8.296l-21.006,-9.278l-42.208,12.559l0,10.064c1.51,-0.433 2.875,-0.836 3.951,-1.142c9.909,-2.99 40.577,6.431 55.925,7.429c14.212,0.914 38.504,13.2 53.426,17.782l4.947,-11.014Z" style="fill:#8a90ab;fill-opacity:0.35;fill-rule:nonzero;"/><path d="M373.764,516.631c-1.396,-0.129 -2.826,-0.209 -4.32,-0.129c-5.951,0.274 -9.38,-6.898 -11.926,-15.129l-14.478,23.748l-5.388,11.994c0.192,0.049 0.425,0.145 0.619,0.176c7.74,1.883 16.509,5.611 26.186,9.215l9.307,-29.875Z" style="fill:#8a90ab;fill-opacity:0.35;fill-rule:nonzero;"/><path d="M399.631,518.963c-4.224,1.107 -7.957,0.963 -11.557,0.416l-10.15,31.627c4.281,1.271 8.706,2.381 13.291,3.137c20.799,3.457 36.626,-13.379 42.062,-20.309c5.454,-6.945 12.375,-11.398 12.375,-14.037c0,-2.635 -34.626,-3.809 -46.021,-0.834" style="fill:#8a90ab;fill-opacity:0.35;fill-rule:nonzero;"/><path d="M375.066,550.172l10.086,-31.371c-2.787,-0.578 -5.534,-1.285 -8.393,-1.768l-9.507,30.5c2.545,0.918 5.146,1.803 7.814,2.639" style="fill:#8a90ab;fill-opacity:0.35;fill-rule:nonzero;"/><path d="M323.679,376.971l30.853,-14.068l2.239,-16.981c-16.35,1.192 -33.567,12.043 -42.938,18.266l9.846,12.783Z" style="fill:#8a90ab;fill-opacity:0.35;fill-rule:nonzero;"/><path d="M352.653,399.69l5.579,0.531l12.239,-29.295l-13.346,-4.986l-4.472,33.75Z" style="fill:#8a90ab;fill-opacity:0.35;fill-rule:nonzero;"/><path d="M349.688,399.401l4.377,-33.025l-28.516,13.007l14.727,19.133l9.412,0.885Z" style="fill:#8a90ab;fill-opacity:0.35;fill-rule:nonzero;"/><path d="M360.779,401.813l3.613,8.795l28.46,-52.24c-3.108,-2.299 -6.593,-4.647 -11.073,-6.785l-21,50.23Z" style="fill:#8a90ab;fill-opacity:0.35;fill-rule:nonzero;"/><path d="M357.527,362.918l14.101,5.258l7.436,-17.783c-3.43,-1.448 -7.381,-2.75 -12.094,-3.842c-2.345,-0.531 -4.754,-0.709 -7.187,-0.725l-2.256,17.092Z" style="fill:#8a90ab;fill-opacity:0.35;fill-rule:nonzero;"/><path d="M384.324,417.233l-17.812,-1.48l13.324,32.431c1.427,-0.658 2.874,-1.318 4.465,-2.041c2.729,-1.224 5.515,-2.267 8.311,-3.201l-8.288,-25.709Z" style="fill:#8a90ab;fill-opacity:0.35;fill-rule:nonzero;"/><path d="M513.631,342.258l-27.889,61.709l7.877,3.359l29.641,-54.763c-3.18,-3.409 -6.425,-6.881 -9.629,-10.305" style="fill:#8a90ab;fill-opacity:0.35;fill-rule:nonzero;"/><path d="M494.944,411.137l-3.903,-1.672l-5.574,16.289l10.054,10l18.383,-3.297l4.681,-15.578l-23.553,-5.918l-0.088,0.176Z" style="fill:#8a90ab;fill-opacity:0.35;fill-rule:nonzero;"/><path d="M533.105,456.737l3.317,-35.355l-14.962,-3.764l-4.833,16.047l8.784,21.787l7.693,1.285Z" style="fill:#8a90ab;fill-opacity:0.35;fill-rule:nonzero;"/><path d="M522.489,456.143l-8.36,-20.709l-18.094,3.264l-6.824,14.148l28.579,6.014l4.699,-2.717Z" style="fill:#8a90ab;fill-opacity:0.35;fill-rule:nonzero;"/><path d="M466.813,443.12l19.522,8.842l6.89,-14.293l-11.171,-11.127l6.248,-18.233l-11.676,-4.984l-9.813,12.99l0,26.805Z" style="fill:#8a90ab;fill-opacity:0.35;fill-rule:nonzero;"/><path d="M460.381,341.018l20.293,6.496l1.389,-6.865l-19.008,-8.264l-2.674,8.633Z" style="fill:#8a90ab;fill-opacity:0.35;fill-rule:nonzero;"/><path d="M422.485,510.938c7.646,-0.979 15.129,-2.523 21.457,-4.115l-7.452,-25.614l-5.958,-9.63l-17.667,12.203l5.146,1.592l4.474,25.564Z" style="fill:#8a90ab;fill-opacity:0.35;fill-rule:nonzero;"/><path d="M485.18,340.247l-5.277,25.26l-2.321,3.248l9.58,24.889l24.269,-53.733c-6.209,-6.625 -12.23,-12.993 -17.401,-18.315l-8.85,18.651Z" style="fill:#8a90ab;fill-opacity:0.35;fill-rule:nonzero;"/><path d="M409.227,482.672l19.724,-13.635l-15.074,-24.31c-5.493,1.416 -10.874,2.701 -15.564,4.05l4.514,8.588l-7.998,4.629l3.83,17.43l10.568,3.248Z" style="fill:#8a90ab;fill-opacity:0.35;fill-rule:nonzero;"/><path d="M483.003,402.811l2.441,-5.355l-9.926,-25.791l-4.409,6.207l-25.32,9.421c1.639,1.479 2.981,3.215 3.928,5.258l9.395,0.08l23.891,10.18Z" style="fill:#8a90ab;fill-opacity:0.35;fill-rule:nonzero;"/><path d="M398.876,456.207l-3.43,-6.545c-4.521,1.416 -8.897,3.024 -13.056,4.76l3.757,9.148l12.729,-7.363Z" style="fill:#8a90ab;fill-opacity:0.35;fill-rule:nonzero;"/><path d="M326.144,233.243l-3.831,10.049l26.958,14.117l2.192,-11.156l-25.319,-13.01Z" style="fill:#8a90ab;fill-opacity:0.35;fill-rule:nonzero;"/><path d="M431.367,467.383l11.645,-8.057l-12.119,-19.777c-4.41,1.689 -9.187,3.121 -14.022,4.406l14.496,23.428Z" style="fill:#8a90ab;fill-opacity:0.35;fill-rule:nonzero;"/><path d="M449.428,307.286l11.668,-19.904c-6.256,-7.012 -12.335,-13.877 -17.69,-19.504l-12.207,16.705l18.229,22.703Z" style="fill:#8a90ab;fill-opacity:0.35;fill-rule:nonzero;"/><path d="M509.929,463.411l4.007,-2.316l-26.067,-5.483l-0.121,0.258l-23.898,-10.82l0,-29.715l9.951,-13.217l-15.581,-6.641l-7.475,0c2.312,7.784 1.156,18.088 -1.26,28.526c-1.006,4.324 -4.138,7.748 -8.473,10.578l11.611,18.603l10.36,-3.23l9.058,21.207l-16.061,9.293l-11.41,-18.604l-11.636,8.055l6.351,10.276l7.534,25.902c0.609,-0.176 1.235,-0.338 1.806,-0.498c14.165,-3.922 38.304,-14.711 63.753,-19.246l-2.449,-22.928Z" style="fill:#8a90ab;fill-opacity:0.35;fill-rule:nonzero;"/><path d="M429.616,326.983l9.661,-5.789l-30.131,-29.07l-57.723,-30.229l-2.329,11.947l55.106,24.553l25.416,28.588Z" style="fill:#8a90ab;fill-opacity:0.35;fill-rule:nonzero;"/><path d="M354.219,247.666l-2.201,11.174l59.039,30.984l30.413,29.36l6.302,-9.231l-19.408,-24.15l-74.145,-38.137Z" style="fill:#8a90ab;fill-opacity:0.35;fill-rule:nonzero;"/><path d="M532.824,459.696l-8.191,-1.35l-11.548,6.672l2.224,20.823c5.052,-0.803 10.143,-1.319 15.202,-1.479l2.313,-24.666Z" style="fill:#8a90ab;fill-opacity:0.35;fill-rule:nonzero;"/><path d="M433.607,346.807l12.913,-21.609l-4.707,-2.059l-12.784,7.654l-26.829,-30.179l-12.752,-5.661l-2.41,12.364l38.184,35.519l8.385,3.971Z" style="fill:#8a90ab;fill-opacity:0.35;fill-rule:nonzero;"/><path d="M468.267,469.905l-6.978,-16.303l-8.657,2.686l-5.614,3.875l9.974,16.271l11.275,-6.529Z" style="fill:#8a90ab;fill-opacity:0.35;fill-rule:nonzero;"/><path d="M433.688,438.424l11.773,19.197l4.488,-3.103l-11.483,-18.393c-1.494,0.819 -3.091,1.592 -4.779,2.299" style="fill:#8a90ab;fill-opacity:0.35;fill-rule:nonzero;"/><path d="M460.325,331.196l-11.059,-4.809l-12.953,21.707l16.359,7.782l7.653,-24.68Z" style="fill:#8a90ab;fill-opacity:0.35;fill-rule:nonzero;"/><path d="M377.811,340.938c5.926,1.848 11.475,3.939 16.374,5.113c11.821,2.846 38.482,30.487 49.05,39.008l25.971,-9.633l8.094,-11.398l2.78,-13.588l-20.583,-6.574l-5.002,16.158l-31.135,-14.856l-37.036,-34.459l-8.513,30.229Z" style="fill:#8a90ab;fill-opacity:0.35;fill-rule:nonzero;"/><path d="M293.854,291.416l-11.373,-9.76l-24.798,33.297l16.094,15.486l20.077,-39.023Z" style="fill:#8a90ab;fill-opacity:0.35;fill-rule:nonzero;"/><path d="M550.475,460.872l1.414,-35.584l-12.56,-3.168l-5.838,62.193c1.806,0 3.565,0.049 5.244,0.145l11.74,-23.586Z" style="fill:#8a90ab;fill-opacity:0.35;fill-rule:nonzero;"/><path d="M637.661,495.809l3.269,45.631l32.082,-16.192c-0.554,-7.814 -1.408,-16.175 -4.167,-17.669c-1.269,-0.707 -2.209,-2.041 -2.852,-3.651l-24.356,3.826l0,-11.945l-3.976,0Z" style="fill:#8a90ab;fill-opacity:0.35;fill-rule:nonzero;"/><path d="M415.394,487.69l-17.16,-5.275l-11.372,25.839c7.95,4.118 20.285,4.422 32.669,3.055l-4.137,-23.619Z" style="fill:#8a90ab;fill-opacity:0.35;fill-rule:nonzero;"/><path d="M367.518,490.985c1.774,2.043 3.629,4.053 5.532,5.965l3.887,-9.373l-9.419,3.408Z" style="fill:#8a90ab;fill-opacity:0.35;fill-rule:nonzero;"/><path d="M382.261,482.479l-6.931,16.723c3.076,2.943 6.135,5.547 8.971,7.507l11.554,-26.271l-3.733,-16.883l-7.42,4.293l-5.043,-12.285c-10.809,4.713 -19.636,9.744 -23.586,12.381c-3.333,2.221 1.799,11.367 9.388,20.631l16.8,-6.096Z" style="fill:#8a90ab;fill-opacity:0.35;fill-rule:nonzero;"/><path d="M665.391,451.094c-5.573,-2.412 -11.611,2.412 -17.089,8.65l21.683,12.526c0.136,-0.612 0.258,-1.223 0.36,-1.85c1.479,-9.422 6.434,-14.373 -4.954,-19.326" style="fill:#8a90ab;fill-opacity:0.35;fill-rule:nonzero;"/><path d="M751.503,594.276c-1.487,-8.426 -5.437,6.43 -14.359,7.943c-8.891,1.477 -2.088,-23.443 -3.96,-33.058c-1.67,-8.748 -16.27,-3.746 -22.975,-0.918l2.096,60.748c5.421,0.222 10.134,-0.322 12.977,-1.014c7.911,-1.994 20.784,-7.928 28.694,-12.396c7.917,-4.455 -0.989,-12.881 -2.473,-21.305" style="fill:#8a90ab;fill-opacity:0.35;fill-rule:nonzero;"/><path d="M638.055,542.887l-3.372,-47.078l-17.306,0l-20.253,19.631c9.347,7.605 22.092,19.777 32.95,31.467l7.981,-4.02Z" style="fill:#8a90ab;fill-opacity:0.35;fill-rule:nonzero;"/><path d="M697.56,506.1c7.421,-4.471 2.643,-23.959 -1.485,-29.746c-4.127,-5.789 -13.555,-4.422 -23.753,3.473c-8.377,6.48 -5.341,2.314 -3.158,-4.582l-22.815,-13.202c-0.586,0.723 -1.172,1.463 -1.74,2.203l0,40.036l20.548,-3.246c-0.899,-5.002 0.193,-11.032 2.708,-12.286c3.959,-1.978 6.071,12.428 6.432,21.803c0.369,9.358 15.851,0 23.264,-4.453" style="fill:#8a90ab;fill-opacity:0.35;fill-rule:nonzero;"/><path d="M343.128,288.827l2.594,-13.232l-46.481,-20.596l-2.089,9.517l45.976,24.311Z" style="fill:#8a90ab;fill-opacity:0.35;fill-rule:nonzero;"/><path d="M616.155,492.834l25.481,0l0,-24.713c-2.931,3.924 -5.492,7.443 -7.426,9.229c-6.443,5.949 -16.337,0 -26.231,-2.475c-9.884,-2.478 13.364,-32.205 21.282,-41.115c7.918,-8.924 38.114,13.877 50.481,15.853c12.375,1.979 18.301,-13.875 27.712,-19.824c9.42,-5.949 6.441,-35.678 2.473,-47.56c-3.958,-11.883 -39.348,17.832 -48.993,27.736c-9.259,9.517 -25.866,11.207 -45.589,6.93l-16.487,33.201l-12.198,57.498c1.341,1.047 2.658,2.043 4.007,2.959c1.214,0.82 2.618,1.881 4.103,3.039l21.385,-20.758Z" style="fill:#8a90ab;fill-opacity:0.35;fill-rule:nonzero;"/><path d="M496.502,408.26l55.499,14.053l1.518,-38.332c-0.867,-0.77 -1.696,-1.528 -2.458,-2.25c-5.083,-4.889 -14.879,-15.34 -25.657,-26.885l-28.902,53.414Z" style="fill:#8a90ab;fill-opacity:0.35;fill-rule:nonzero;"/><path d="M612.366,416.25c-18.149,-4.484 -42.072,-18.521 -55.989,-29.857l-1.51,36.869l41.961,24.246l15.538,-31.258Z" style="fill:#8a90ab;fill-opacity:0.35;fill-rule:nonzero;"/><path d="M575.425,473.604l-13.578,-26.111l14.494,-8.395l-21.618,-12.476l-1.438,35.293l-11.379,22.832c10.858,1.173 19.129,4.55 26.012,8.714l7.507,-19.857Z" style="fill:#8a90ab;fill-opacity:0.35;fill-rule:nonzero;"/><path d="M451.42,309.762l0.047,0.064l-7.525,11.014l39.101,16.996l8.777,-18.508c-3.108,-3.168 -5.878,-5.916 -8.062,-7.943c-6.279,-5.9 -13.459,-13.73 -20.592,-21.674l-11.746,20.051Z" style="fill:#8a90ab;fill-opacity:0.35;fill-rule:nonzero;"/><path d="M595.767,450.338l-16.454,-9.502l-13.516,7.797l12.873,24.777l-8.206,21.69c5.075,3.361 9.427,7.06 13.604,10.437l11.699,-55.199Z" style="fill:#8a90ab;fill-opacity:0.35;fill-rule:nonzero;"/><path d="M384.412,259.95l13.9,-23.619c-20.171,-10.033 -40.762,-17.108 -49.659,-17.108c-5.043,0 -13.01,2.186 -27.143,8.313l62.902,32.414Z" style="fill:#8a90ab;fill-opacity:0.35;fill-rule:nonzero;"/><path d="M387.063,261.317l41.733,21.496l12.512,-17.107c-1.517,-1.575 -3.012,-3.055 -4.376,-4.325c-8.978,-8.361 -22.245,-16.673 -35.961,-23.701l-13.909,23.637Z" style="fill:#8a90ab;fill-opacity:0.35;fill-rule:nonzero;"/><path d="M255.54,312.866l24.685,-33.139l-25.152,-21.627c-3.702,7.864 -7.629,15.887 -11.82,20.082c-6.601,6.61 -4.633,13.411 -3.718,19.295l16.005,15.389Z" style="fill:#8a90ab;fill-opacity:0.35;fill-rule:nonzero;"/><path d="M338.889,322.352l-42.627,-29.119l-21.682,42.109l-34.725,-33.441c-0.079,1.252 -0.328,2.443 -0.93,3.535c-3.831,6.947 -12.005,-6.945 -16.463,-4.469c-4.457,2.477 -6.93,17.848 0,25.276c6.931,7.427 26.726,23.781 33.656,32.703c6.923,8.908 14.351,30.711 18.799,34.681c4.457,3.957 21.771,-22.798 26.236,-32.205c3.903,-8.248 24.541,-16.142 40.915,-20.949l-3.179,-18.121Z" style="fill:#8a90ab;fill-opacity:0.35;fill-rule:nonzero;"/><path d="M374.953,340.102l8.641,-30.613l3.068,-15.758l-38.161,-16.899l-3.221,16.481l-51.515,-27.221l3.365,-15.275l49.169,21.787l2.394,-12.141l-30.091,-15.756l4.868,-12.847l-5.43,-2.781c-1.469,0.66 -2.914,1.302 -4.521,2.041c-19.289,8.908 -37.117,5.933 -44.545,5.933c-3.894,0 -8.078,8.635 -12.591,18.25l40.289,34.633l44.929,30.662l3.325,19.055c1.285,-0.356 2.539,-0.709 3.727,-1.03c9.107,-2.412 18.036,-0.869 26.3,1.479" style="fill:#8a90ab;fill-opacity:0.35;fill-rule:nonzero;"/><path d="M673.566,533.305l0.031,0c-0.121,-1.463 -0.24,-3.104 -0.353,-4.824l-41.068,20.693c6.328,6.945 11.845,13.604 15.402,18.846c9.14,13.553 16.046,14.598 19.177,16.543l6.811,-51.258Z" style="fill:#8a90ab;fill-opacity:0.35;fill-rule:nonzero;"/><path d="M713.711,512.532c-1.663,-6.449 -25.062,4.453 -32.483,5.949c-4.778,0.947 -4.634,9.26 -4.723,15.211l0.009,0l-0.009,0.047c-0.049,2.75 -0.128,4.967 -0.762,5.756l-6.578,49.555c1.511,5.628 4.265,16.627 14.046,28.007c6.728,7.864 17.057,10.92 26.131,11.739l-2.089,-59.86c-3.773,-2.187 -1.493,-26.771 -3.758,-38.574c-2.481,-12.879 11.878,-11.385 10.216,-17.83" style="fill:#8a90ab;fill-opacity:0.35;fill-rule:nonzero;"/><path d="M708.41,280.37l-2.875,20.711l17.611,24.391c1.197,-2.88 1.951,-6.192 2.127,-9.632c0.498,-9.906 -6.921,-17.349 -6.439,-24.279c0.498,-6.931 7.918,-33.203 0,-33.203c-1.116,0 -2.892,0.048 -5.051,0.096l-5.373,21.915Z" style="fill:#8a90ab;fill-opacity:0.35;fill-rule:nonzero;"/><path d="M665.351,255.85l12.046,17.687l28.452,4.792l4.865,-19.793c-14.037,0.353 -38.801,0.802 -40.375,-3.137c-1.984,-4.967 -13.885,-27.752 -20.793,-23.779c-2.134,1.22 -2.8,2.894 -2.777,4.646l18.582,19.584Z" style="fill:#8a90ab;fill-opacity:0.35;fill-rule:nonzero;"/><path d="M688.455,310.823l14.157,-10.178l2.682,-19.39l-29.64,-5l-2.217,-3.248l-39.397,35.822c7.42,2.156 15.603,3.361 19.979,5.371l5.149,-10.371l29.287,6.994Z" style="fill:#8a90ab;fill-opacity:0.35;fill-rule:nonzero;"/><path d="M703.665,303.539l-13.154,9.471l3.46,11.302l0,0.258l-1.478,37.11c6.722,-9.278 12.192,-26.112 18.921,-26.514c4.417,-0.273 7.845,-2.879 10.206,-6.705l-17.955,-24.922Z" style="fill:#8a90ab;fill-opacity:0.35;fill-rule:nonzero;"/><path d="M690.992,324.7l-3.396,-11.031l-26.815,-6.401l-4.271,8.604c3.983,4.471 14.798,13.861 9.363,20.275c-5.429,6.448 -9.468,19.198 -0.483,16.852c8.987,-2.35 12.383,18.826 21.781,13.875c0.761,-0.418 1.477,-0.996 2.216,-1.639l1.605,-40.535Z" style="fill:#8a90ab;fill-opacity:0.35;fill-rule:nonzero;"/><path d="M671.751,270.514l-7.925,-11.658l-19.965,11.545l3.149,13.023l-23.667,20.631c0.169,0.127 0.305,0.272 0.474,0.385c1.959,1.351 4.369,2.428 6.971,3.344l40.963,-37.27Z" style="fill:#8a90ab;fill-opacity:0.35;fill-rule:nonzero;"/><path d="M620.959,302.205l22.75,-19.842l-3.26,-13.426l21.465,-12.412l-13.139,-13.861c0.538,1.352 0.869,2.381 0.282,2.814c-1.984,1.497 -8.737,-10.433 -12.279,-4.47c-3.557,5.967 -35.052,29.41 -29.784,39.168c4.231,7.83 6.842,15.806 13.965,22.029" style="fill:#8a90ab;fill-opacity:0.35;fill-rule:nonzero;"/><path d="M569.146,302.961c-2.345,-0.756 -2,-2.236 -0.506,-4.117l-22.437,-16.207c-4.89,6.4 -9.301,13.49 -11.957,14.215c-4.956,1.332 -2.547,8.697 2.963,16.013c5.524,7.299 14.847,4.453 17.827,7.428c2.971,2.975 12.359,0 18.302,-4.951c5.942,-4.953 1.99,-10.404 -4.192,-12.381" style="fill:#8a90ab;fill-opacity:0.35;fill-rule:nonzero;"/><path d="M558.995,272.235c-3.51,0 -7.315,3.633 -10.954,8.07l22.631,16.336c2.73,-2.732 6.44,-5.949 8.111,-9.052c3.459,-6.432 -10.865,-15.354 -19.788,-15.354" style="fill:#8a90ab;fill-opacity:0.35;fill-rule:nonzero;"/><path d="M310.572,566.17c-9.363,-4.504 -19.906,-10.902 -28.934,-16.738l-8.818,16.785l31.408,13.33c1.622,-3.586 3.991,-8.682 6.344,-13.377" style="fill:#8a90ab;fill-opacity:0.35;fill-rule:nonzero;"/><path d="M213.21,538.627c-10.471,4.855 -22.838,16.641 -25.392,23.441c-1.885,5.034 6.61,13.668 13.95,21.209l11.442,-44.65Z" style="fill:#8a90ab;fill-opacity:0.35;fill-rule:nonzero;"/><path d="M501.577,560.59c-3.959,-6.945 -37.606,17.832 -53.933,26.258c-1.011,0.513 -2.183,0.931 -3.277,1.396l17.909,34.571c9.677,-4.936 19.12,-11.786 27.431,-17.139c15.34,-9.906 15.829,-38.156 11.87,-45.086" style="fill:#8a90ab;fill-opacity:0.35;fill-rule:nonzero;"/><path d="M257.628,588.745l21.521,-40.953c-7.058,-4.631 -12.913,-8.731 -16.108,-10.981c-0.266,-0.196 -0.572,-0.322 -0.86,-0.5l-14.889,46.485c2.973,1.317 6.264,3.441 10.336,5.948" style="fill:#8a90ab;fill-opacity:0.35;fill-rule:nonzero;"/><path d="M459.61,624.118l-17.981,-34.699c-1.831,0.66 -3.775,1.24 -5.757,1.769c5.879,10.565 14.43,26.274 19.113,34.907c1.542,-0.594 3.091,-1.27 4.625,-1.977" style="fill:#8a90ab;fill-opacity:0.35;fill-rule:nonzero;"/><path d="M321.333,617.379c7.99,1.721 18.454,3.668 28.733,5.5l6.561,-16.063l-21.602,-8.892l-13.692,19.455Z" style="fill:#8a90ab;fill-opacity:0.35;fill-rule:nonzero;"/><path d="M364.271,588.084c-5.829,-1.961 -11.771,-4.213 -17.666,-6.607l-9.822,13.955l20.977,8.619l6.511,-15.967Z" style="fill:#8a90ab;fill-opacity:0.35;fill-rule:nonzero;"/><path d="M209.686,564.352l29.952,17.318c1.606,-0.338 3.204,-0.291 4.843,0.127l14.976,-46.691c-10.615,-3.457 -31.856,-0.547 -41.308,1.705c-0.496,0.111 -1.035,0.354 -1.55,0.529l-6.913,27.012Z" style="fill:#8a90ab;fill-opacity:0.35;fill-rule:nonzero;"/><path d="M213.355,569.916l-4.433,-2.572l-4.736,18.426c3.195,3.343 5.885,6.333 6.897,8.505c1.445,3.12 4.4,2.813 7.957,0.981l-5.685,-25.34Z" style="fill:#8a90ab;fill-opacity:0.35;fill-rule:nonzero;"/><path d="M412.994,594.565c-9.863,0.498 -19.884,0 -28.693,-1.27c-5.286,-0.773 -11.131,-2.298 -17.209,-4.246l-14.031,34.362c15.748,2.765 30.412,5.144 34.202,5.756c4.248,0.691 14.502,0.046 25.731,-0.354l0,-34.248Z" style="fill:#8a90ab;fill-opacity:0.35;fill-rule:nonzero;"/><path d="M432.908,591.975c-5.348,1.238 -11.081,2.027 -16.943,2.445l0,34.311c7.5,-0.223 15.233,-0.274 21.778,0.338c4.698,0.42 9.539,-0.401 14.398,-1.977c-6.528,-12.012 -14.166,-26 -19.233,-35.117" style="fill:#8a90ab;fill-opacity:0.35;fill-rule:nonzero;"/><path d="M343.778,580.319c-9.845,-4.053 -19.273,-8.248 -26.926,-11.336c-1.173,-0.465 -2.361,-0.98 -3.589,-1.527c-2.194,4.375 -4.667,9.599 -6.931,14.648l-11.211,26.723c6.289,2.814 12.585,5.258 18.398,6.754c1.357,0.353 2.954,0.738 4.674,1.107l25.585,-36.369Z" style="fill:#8a90ab;fill-opacity:0.35;fill-rule:nonzero;"/><path d="M216.865,571.926l4.857,21.738c4.305,-2.799 9.092,-6.994 13.107,-9.855c0.457,-0.322 0.867,-0.485 1.317,-0.725l-19.281,-11.158Z" style="fill:#8a90ab;fill-opacity:0.35;fill-rule:nonzero;"/><path d="M303.047,582.28l-31.623,-13.408l-11.242,21.383c0.529,0.322 1.003,0.629 1.574,0.949c7.886,4.566 19.12,11.047 30.651,16.418l10.64,-25.342Z" style="fill:#8a90ab;fill-opacity:0.35;fill-rule:nonzero;"/><path d="M545.456,545.975l-25.007,-10.227l3.886,-4.55l23.401,11.802l-2.28,2.975Zm-5.774,-15.113c-14.351,-3.475 -19.129,-2.574 -21.778,2.634c-5.124,10.163 -9.887,16.692 -7.413,26.098c2.466,9.406 9.894,35.18 17.314,32.205c7.427,-2.974 15.338,-7.928 20.798,-25.76c5.436,-17.845 5.436,-31.72 -8.921,-35.177" style="fill:#8a90ab;fill-opacity:0.35;fill-rule:nonzero;"/><path d="M655.73,328.461l-8.609,11.432l4.817,8.763c5.334,-5.273 9.551,-11.658 7.51,-15.982c-0.683,-1.447 -2.024,-2.879 -3.718,-4.213" style="fill:#8a90ab;fill-opacity:0.35;fill-rule:nonzero;"/><path d="M643.588,339.635l9.726,-12.879c-8.65,-5.289 -22.567,-7.91 -22.567,-0.996c0,3.312 1.983,32.687 7.42,32.189c2.274,-0.209 7.052,-3.183 11.549,-7.187l-6.128,-11.127Z" style="fill:#8a90ab;fill-opacity:0.35;fill-rule:nonzero;"/><path d="M341.594,314.393l13.363,4.148l-1.445,-15.693l15.859,0.065l-12.583,34.263c-0.153,0.403 0.056,0.852 0.465,0.996c0.088,0.049 0.177,0.065 0.275,0.065c0.321,0 0.609,-0.209 0.729,-0.53l12.785,-34.779l13.966,0.065c0.426,0 0.786,-0.354 0.786,-0.788c0,-0.435 -0.353,-0.789 -0.779,-0.789l-31.985,-0.144l-7.156,-8.457c-0.297,-0.354 -0.77,-0.385 -1.101,-0.113c-0.336,0.289 -0.376,0.789 -0.095,1.109l7.219,8.57l1.278,13.973l-10.745,-3.295l-9.533,-7.285l6.289,-15.774c0.151,-0.418 -0.041,-0.867 -0.45,-1.029c-0.378,-0.16 -0.844,0.033 -1.012,0.451l-6.12,15.371l-13.868,-10.58l6.183,-12.203c0.193,-0.387 0.04,-0.853 -0.346,-1.062c-0.385,-0.176 -0.868,-0.047 -1.052,0.355l-6.047,11.945l-18.276,-13.955l5.01,-8.17c0.226,-0.369 0.097,-0.835 -0.264,-1.076c-0.362,-0.224 -0.844,-0.111 -1.076,0.274l-4.939,8.008l-28.211,-21.532c-0.361,-0.271 -0.845,-0.207 -1.108,0.147c-0.258,0.336 -0.194,0.834 0.152,1.092l73.832,56.357Z" style="fill:#fff;fill-opacity:0.35;fill-rule:nonzero;"/><path d="M433.671,377.629c0.129,0.082 0.266,0.113 0.409,0.113c0.259,0 0.524,-0.129 0.667,-0.369l4.24,-7.058l14.455,11.4c0.144,0.111 0.321,0.16 0.483,0.16c0.233,0 0.457,-0.098 0.626,-0.307c0.257,-0.335 0.201,-0.834 -0.145,-1.091l-14.607,-11.53l7.395,-12.316c0.217,-0.369 0.106,-0.854 -0.281,-1.076c-0.369,-0.211 -0.843,-0.115 -1.075,0.273l-7.283,12.155l-10.682,-8.426l4.056,-10.354c0.169,-0.418 -0.032,-0.869 -0.441,-1.029c-0.411,-0.162 -0.859,0.031 -1.013,0.449l-3.878,9.922l-15.94,-12.559l4.247,-9.037c0.185,-0.384 0.008,-0.851 -0.378,-1.027c-0.376,-0.209 -0.858,-0.031 -1.043,0.369l-4.095,8.699l-26.509,-20.918c-0.33,-0.257 -0.827,-0.209 -1.108,0.145c-0.265,0.338 -0.209,0.836 0.135,1.092l26.807,21.129l-2.923,6.222c-0.193,0.403 -0.017,0.867 0.368,1.045c0.107,0.049 0.226,0.08 0.339,0.08c0.289,0 0.57,-0.177 0.706,-0.451l2.771,-5.9l16.02,12.638l-2.85,7.268c-0.161,0.402 0.04,0.851 0.45,1.012c0.095,0.033 0.183,0.048 0.288,0.048c0.306,0 0.602,-0.177 0.723,-0.498l2.666,-6.816l10.463,8.248l-4.336,7.219c-0.224,0.369 -0.095,0.851 0.273,1.076" style="fill:#fff;fill-opacity:0.35;fill-rule:nonzero;"/><path d="M474.739,368.401c0.29,0 0.578,-0.16 0.707,-0.434c0.192,-0.386 0.04,-0.853 -0.353,-1.045l-19.611,-9.679c-0.393,-0.176 -0.859,-0.031 -1.052,0.369c-0.183,0.387 -0.033,0.869 0.353,1.045l19.611,9.68c0.112,0.048 0.233,0.064 0.345,0.064" style="fill:#fff;fill-opacity:0.35;fill-rule:nonzero;"/><path d="M478.875,356.889l-20.952,-7.783c-0.377,-0.145 -0.867,0.064 -1.011,0.467c-0.153,0.418 0.056,0.867 0.466,1.013l20.96,7.766c0.088,0.033 0.183,0.049 0.271,0.049c0.322,0 0.62,-0.194 0.732,-0.516c0.162,-0.402 -0.056,-0.851 -0.466,-0.996" style="fill:#fff;fill-opacity:0.35;fill-rule:nonzero;"/><path d="M497.971,336.998l3.374,-8.248c0.169,-0.385 -0.017,-0.852 -0.426,-1.012c-0.401,-0.178 -0.867,0.031 -1.012,0.418l-3.164,7.701l-6.376,-5.998c-0.321,-0.289 -0.804,-0.289 -1.108,0.049c-0.297,0.307 -0.272,0.805 0.032,1.11l6.809,6.4l-6.054,14.809l-5.413,-6.883c-0.273,-0.338 -0.77,-0.403 -1.107,-0.129c-0.337,0.273 -0.386,0.756 -0.129,1.109l5.95,7.574l-9.331,22.768c-0.169,0.4 0.016,0.852 0.425,1.029c0.089,0.032 0.202,0.047 0.297,0.047c0.305,0 0.603,-0.176 0.723,-0.482l9.002,-21.948l8.633,11.014c0.16,0.194 0.394,0.307 0.627,0.307c0.169,0 0.329,-0.065 0.474,-0.178c0.344,-0.273 0.408,-0.756 0.135,-1.109l-9.186,-11.705l6.177,-15.067l10.14,9.52c0.154,0.129 0.346,0.191 0.53,0.191c0.218,0 0.419,-0.08 0.58,-0.24c0.296,-0.305 0.281,-0.82 -0.034,-1.109l-10.568,-9.938Z" style="fill:#fff;fill-opacity:0.35;fill-rule:nonzero;"/><path d="M403.484,285.821l4.329,-9.391l55.957,54.25l9.885,-20.773l15.057,15.34c0.153,0.16 0.353,0.24 0.561,0.24c0.193,0 0.387,-0.08 0.548,-0.225c0.313,-0.306 0.313,-0.82 0.007,-1.127l-29.174,-29.728c-0.314,-0.305 -0.804,-0.322 -1.108,0c-0.316,0.305 -0.316,0.789 -0.017,1.094l12.953,13.201l-9.195,19.326l-55.185,-53.494l-0.795,-0.772l-5.245,11.399c-0.183,0.387 -0.006,0.853 0.378,1.047c0.402,0.16 0.867,0 1.044,-0.387" style="fill:#fff;fill-opacity:0.35;fill-rule:nonzero;"/><path d="M384.685,276.881c0.105,0.047 0.218,0.064 0.323,0.064c0.305,0 0.593,-0.177 0.714,-0.466l4.569,-10.291c0.193,-0.403 0,-0.868 -0.385,-1.045c-0.41,-0.194 -0.867,0 -1.043,0.402l-4.562,10.307c-0.185,0.386 0,0.851 0.384,1.029" style="fill:#fff;fill-opacity:0.35;fill-rule:nonzero;"/><path d="M317.478,260.69c0.089,0.031 0.177,0.049 0.257,0.049c0.33,0 0.636,-0.209 0.747,-0.531l4.569,-13.297c0.145,-0.42 -0.073,-0.854 -0.482,-1.014c-0.417,-0.145 -0.851,0.098 -0.996,0.498l-4.576,13.297c-0.145,0.418 0.072,0.853 0.481,0.998" style="fill:#fff;fill-opacity:0.35;fill-rule:nonzero;"/><path d="M335.387,268.633c0.088,0.031 0.169,0.047 0.265,0.047c0.322,0 0.635,-0.209 0.739,-0.531l4.16,-12.09c0.136,-0.403 -0.072,-0.854 -0.482,-0.998c-0.403,-0.143 -0.868,0.097 -1.006,0.5l-4.158,12.074c-0.137,0.402 0.089,0.852 0.482,0.998" style="fill:#fff;fill-opacity:0.35;fill-rule:nonzero;"/><path d="M370.472,253.551c0.265,0 0.522,-0.129 0.675,-0.371l13.973,-22.848c0.216,-0.369 0.111,-0.851 -0.258,-1.076c-0.369,-0.226 -0.85,-0.113 -1.084,0.256l-13.974,22.832c-0.232,0.387 -0.111,0.869 0.259,1.094c0.12,0.08 0.263,0.113 0.409,0.113" style="fill:#fff;fill-opacity:0.35;fill-rule:nonzero;"/><path d="M423.81,389.192c-0.231,-0.371 -0.737,-0.451 -1.083,-0.209c-0.361,0.24 -0.467,0.723 -0.217,1.092l17.417,26.097c0.145,0.241 0.403,0.354 0.652,0.354c0.16,0 0.295,-0.049 0.433,-0.129c0.353,-0.242 0.458,-0.725 0.217,-1.094l-17.419,-26.111Z" style="fill:#fff;fill-opacity:0.35;fill-rule:nonzero;"/><path d="M431.198,431.541c0.121,0 0.24,-0.031 0.353,-0.08c0.385,-0.209 0.546,-0.676 0.353,-1.061l-15.442,-31.113c-0.193,-0.369 -0.666,-0.529 -1.06,-0.353c-0.393,0.193 -0.546,0.675 -0.352,1.062l15.441,31.111c0.138,0.258 0.418,0.434 0.707,0.434" style="fill:#fff;fill-opacity:0.35;fill-rule:nonzero;"/><path d="M412.398,438.311c0.065,0 0.129,0 0.186,-0.031c0.433,-0.098 0.682,-0.531 0.577,-0.949l-6.062,-25.147c-0.089,-0.434 -0.514,-0.691 -0.941,-0.596c-0.425,0.114 -0.681,0.532 -0.568,0.95l6.055,25.179c0.087,0.354 0.401,0.594 0.753,0.594" style="fill:#fff;fill-opacity:0.35;fill-rule:nonzero;"/><path d="M410.038,380.653c-0.233,-0.369 -0.698,-0.482 -1.076,-0.256c-0.37,0.24 -0.482,0.723 -0.249,1.076l7.493,12.076c0.151,0.241 0.393,0.37 0.665,0.37c0.138,0 0.29,-0.034 0.41,-0.114c0.369,-0.224 0.482,-0.707 0.258,-1.076l-7.501,-12.076Z" style="fill:#fff;fill-opacity:0.35;fill-rule:nonzero;"/><path d="M397.936,419.516c0.064,0 0.136,-0.018 0.199,-0.033c0.426,-0.113 0.676,-0.547 0.564,-0.965l-3.761,-13.859c-0.11,-0.418 -0.521,-0.659 -0.962,-0.547c-0.417,0.113 -0.658,0.547 -0.561,0.965l3.766,13.859c0.096,0.353 0.409,0.58 0.755,0.58" style="fill:#fff;fill-opacity:0.35;fill-rule:nonzero;"/><path d="M362.474,457.704c0.184,0 0.369,-0.066 0.53,-0.193c0.314,-0.291 0.328,-0.787 0.039,-1.113l-22.805,-25.241l21.095,-20.983c0.298,-0.305 0.314,-0.805 0.017,-1.11c-0.321,-0.321 -0.812,-0.305 -1.116,-0.017l-21.048,20.935l-6.722,-7.426l20.1,-19.377c0.313,-0.305 0.321,-0.803 0.024,-1.108c-0.297,-0.306 -0.787,-0.322 -1.116,-0.015l-20.068,19.341l-15.396,-17.06c-0.28,-0.322 -0.779,-0.337 -1.115,-0.05c-0.314,0.291 -0.346,0.789 -0.056,1.111l15.434,17.093l-7.597,7.316c-0.32,0.305 -0.32,0.803 -0.015,1.124c0.152,0.144 0.353,0.241 0.562,0.241c0.193,0 0.394,-0.079 0.538,-0.224l7.572,-7.301l6.731,7.46l-5.896,5.855c-0.297,0.305 -0.304,0.82 -0.006,1.123c0.151,0.145 0.36,0.226 0.561,0.226c0.201,0 0.4,-0.081 0.552,-0.226l5.847,-5.819l22.767,25.18c0.153,0.175 0.361,0.257 0.587,0.257" style="fill:#fff;fill-opacity:0.35;fill-rule:nonzero;"/><path d="M337.354,373.127c-0.41,0.145 -0.619,0.596 -0.466,1.014l9.123,25.259c0.111,0.307 0.417,0.514 0.739,0.514c0.079,0 0.176,-0.016 0.272,-0.047c0.394,-0.144 0.611,-0.595 0.467,-0.996l-9.132,-25.277c-0.151,-0.401 -0.577,-0.612 -1.003,-0.467" style="fill:#fff;fill-opacity:0.35;fill-rule:nonzero;"/><path d="M345.746,367.694c0.024,0 0.072,-0.016 0.112,-0.033c0.425,-0.049 0.722,-0.449 0.658,-0.885l-2.762,-17.99c-0.065,-0.418 -0.474,-0.707 -0.892,-0.643c-0.432,0.047 -0.722,0.449 -0.666,0.883l2.763,17.992c0.063,0.387 0.409,0.676 0.787,0.676" style="fill:#fff;fill-opacity:0.35;fill-rule:nonzero;"/><path d="M303.795,418.407c0.08,0 0.169,-0.016 0.257,-0.049c0.409,-0.129 0.627,-0.58 0.482,-0.996l-6.481,-19.359l12.43,-11.336l5.558,10.933c0.154,0.274 0.426,0.436 0.698,0.436c0.121,0 0.258,-0.033 0.354,-0.082c0.393,-0.209 0.554,-0.676 0.346,-1.061l-5.766,-11.32l8.786,-8.021c0.32,-0.291 0.344,-0.805 0.056,-1.112c-0.306,-0.32 -0.795,-0.353 -1.101,-0.062l-8.473,7.732l-6.52,-12.799c-0.2,-0.402 -0.69,-0.547 -1.06,-0.353c-0.378,0.209 -0.539,0.676 -0.337,1.06l6.705,13.201l-12.222,11.176l-3.887,-11.576c-0.128,-0.42 -0.546,-0.644 -0.995,-0.5c-0.41,0.129 -0.619,0.58 -0.482,0.981l4.103,12.236l-5.694,5.193c-0.321,0.305 -0.345,0.805 -0.055,1.125c0.152,0.162 0.36,0.258 0.578,0.258c0.184,0 0.385,-0.08 0.529,-0.209l5.179,-4.742l6.274,18.699c0.103,0.32 0.409,0.547 0.738,0.547" style="fill:#fff;fill-opacity:0.35;fill-rule:nonzero;"/><path d="M311.986,425.737l-8.425,13.813c-0.233,0.369 -0.112,0.851 0.257,1.093c0.12,0.08 0.273,0.112 0.41,0.112c0.264,0 0.523,-0.143 0.666,-0.385l8.416,-13.813c0.235,-0.384 0.113,-0.867 -0.249,-1.091c-0.361,-0.211 -0.843,-0.098 -1.075,0.271" style="fill:#fff;fill-opacity:0.35;fill-rule:nonzero;"/><path d="M295.596,448.747c-0.354,-0.258 -0.835,-0.193 -1.109,0.144l-14.511,19.135c-0.273,0.353 -0.193,0.836 0.145,1.11c0.145,0.092 0.321,0.159 0.474,0.159c0.248,0 0.481,-0.113 0.626,-0.322l14.52,-19.132c0.265,-0.339 0.193,-0.837 -0.145,-1.094" style="fill:#fff;fill-opacity:0.35;fill-rule:nonzero;"/><path d="M266.847,432.297c-0.426,0.113 -0.667,0.549 -0.555,0.965l5.767,21.353c0.088,0.354 0.41,0.578 0.762,0.578c0.064,0 0.129,-0.015 0.201,-0.031c0.417,-0.113 0.666,-0.547 0.547,-0.965l-5.758,-21.351c-0.129,-0.42 -0.555,-0.66 -0.964,-0.549" style="fill:#fff;fill-opacity:0.35;fill-rule:nonzero;"/><path d="M255.676,458.893c0.057,0 0.112,-0.016 0.17,-0.016c0.416,-0.097 0.682,-0.515 0.593,-0.951l-4.482,-20.562c-0.094,-0.42 -0.513,-0.707 -0.938,-0.596c-0.417,0.08 -0.691,0.498 -0.595,0.916l4.481,20.598c0.08,0.353 0.409,0.611 0.771,0.611" style="fill:#fff;fill-opacity:0.35;fill-rule:nonzero;"/><path d="M270.131,429.387c0.161,0.209 0.392,0.322 0.635,0.322c0.152,0 0.321,-0.049 0.464,-0.144c0.338,-0.258 0.426,-0.756 0.177,-1.11l-28.989,-40.213c-0.258,-0.337 -0.738,-0.433 -1.092,-0.177c-0.354,0.258 -0.433,0.756 -0.178,1.109l28.983,40.213Z" style="fill:#fff;fill-opacity:0.35;fill-rule:nonzero;"/><path d="M252.447,434.872c0.186,0 0.369,-0.064 0.521,-0.193c0.323,-0.289 0.363,-0.787 0.074,-1.11l-25.544,-29.215c-0.29,-0.322 -0.78,-0.353 -1.109,-0.066c-0.329,0.275 -0.354,0.773 -0.073,1.096l25.546,29.213c0.152,0.177 0.376,0.274 0.585,0.274" style="fill:#fff;fill-opacity:0.35;fill-rule:nonzero;"/><path d="M233.809,453.811c-0.321,-0.273 -0.818,-0.256 -1.115,0.08l-24.581,28.412l-0.186,0.225l0,32.945c0,0.434 0.353,0.789 0.787,0.789c0.433,0 0.788,-0.355 0.788,-0.789l0,-32.365l24.379,-28.188c0.289,-0.322 0.258,-0.82 -0.072,-1.109" style="fill:#fff;fill-opacity:0.35;fill-rule:nonzero;"/><path d="M226.935,434.741c-0.289,-0.32 -0.794,-0.32 -1.107,-0.014l-44,43.284l-0.216,0.209l-2.08,39.699c-0.025,0.449 0.312,0.802 0.738,0.834l0.049,0c0.417,0 0.754,-0.321 0.778,-0.739l2.048,-39.103l43.79,-43.059c0.306,-0.306 0.313,-0.804 0,-1.111" style="fill:#fff;fill-opacity:0.35;fill-rule:nonzero;"/><path d="M261.698,459.631c-0.2,-0.387 -0.667,-0.529 -1.061,-0.338c-0.392,0.211 -0.528,0.692 -0.328,1.063l11.91,22.414c0.152,0.273 0.425,0.433 0.698,0.433c0.121,0 0.258,-0.033 0.36,-0.113c0.396,-0.191 0.531,-0.676 0.331,-1.061l-11.91,-22.398Z" style="fill:#fff;fill-opacity:0.35;fill-rule:nonzero;"/><path d="M237.318,465.5c-0.41,0.162 -0.61,0.611 -0.458,1.029l9.692,25.116c0.121,0.304 0.418,0.498 0.74,0.498c0.089,0 0.184,-0.016 0.272,-0.049c0.401,-0.16 0.611,-0.61 0.451,-1.03l-9.693,-25.115c-0.145,-0.4 -0.61,-0.594 -1.004,-0.449" style="fill:#fff;fill-opacity:0.35;fill-rule:nonzero;"/><path d="M251.188,492.53c-0.483,-0.113 -0.804,0.289 -0.854,0.707l-1.605,19.615c-0.024,0.434 0.29,0.821 0.723,0.854l0.056,0c0.409,0 0.756,-0.307 0.794,-0.709l1.607,-19.631c0.032,-0.436 -0.288,-0.805 -0.722,-0.836" style="fill:#fff;fill-opacity:0.35;fill-rule:nonzero;"/><path d="M282.184,496.934c-0.505,-0.049 -0.826,0.242 -0.883,0.66l-2.738,20.598c-0.056,0.433 0.242,0.834 0.676,0.883c0.031,0.015 0.071,0.015 0.103,0.015c0.394,0 0.722,-0.289 0.771,-0.691l2.746,-20.596c0.056,-0.418 -0.24,-0.82 -0.675,-0.869" style="fill:#fff;fill-opacity:0.35;fill-rule:nonzero;"/><path d="M295.042,522.258l0.079,0c0.395,0 0.739,-0.322 0.78,-0.707l1.028,-12.479c0.032,-0.431 -0.288,-0.802 -0.714,-0.835c-0.531,-0.079 -0.82,0.275 -0.852,0.708l-1.037,12.461c-0.023,0.434 0.29,0.821 0.716,0.852" style="fill:#fff;fill-opacity:0.35;fill-rule:nonzero;"/><path d="M316.948,516.711l-5.003,10.869c-0.192,0.387 -0.017,0.852 0.377,1.029c0.105,0.049 0.218,0.081 0.33,0.081c0.289,0 0.578,-0.161 0.715,-0.45l5.004,-10.869c0.176,-0.402 0,-0.869 -0.387,-1.047c-0.417,-0.175 -0.859,-0.015 -1.036,0.387" style="fill:#fff;fill-opacity:0.35;fill-rule:nonzero;"/><path d="M334.302,484.956c0.435,0 0.78,-0.354 0.78,-0.771l0,-5.434l6.103,-11.932c0.193,-0.402 0.041,-0.869 -0.346,-1.062c-0.36,-0.207 -0.85,-0.045 -1.052,0.338l-5.966,11.707l-8.801,0.193l8.375,-13.65c0.232,-0.371 0.096,-0.854 -0.265,-1.096c-0.353,-0.207 -0.843,-0.111 -1.076,0.273l-8.825,14.391l-23.296,-4.758c-0.475,-0.095 -0.845,0.176 -0.924,0.61c-0.097,0.418 0.185,0.82 0.61,0.918l23.256,4.742l-0.441,7.445c-0.009,0.434 0.312,0.805 0.754,0.82l0.033,0c0.416,0 0.763,-0.322 0.778,-0.755l0.355,-7.366l9.233,-0.207l-0.064,4.822c0,0.418 0.345,0.772 0.779,0.772" style="fill:#fff;fill-opacity:0.35;fill-rule:nonzero;"/><path d="M350.075,513.608l20.726,11.979c0.128,0.064 0.257,0.097 0.402,0.097c0.256,0 0.529,-0.146 0.674,-0.387c0.217,-0.386 0.088,-0.851 -0.289,-1.078l-20.727,-11.978c-0.361,-0.207 -0.85,-0.08 -1.068,0.291c-0.208,0.369 -0.088,0.851 0.282,1.076" style="fill:#fff;fill-opacity:0.35;fill-rule:nonzero;"/><path d="M341.707,528.063c-0.402,-0.178 -0.859,0.016 -1.036,0.402c-0.177,0.403 0.009,0.868 0.401,1.045l25.128,11.127c0.104,0.047 0.2,0.065 0.312,0.065c0.298,0 0.586,-0.178 0.715,-0.467c0.177,-0.402 -0.008,-0.854 -0.394,-1.029l-25.126,-11.143Z" style="fill:#fff;fill-opacity:0.35;fill-rule:nonzero;"/><path d="M337.916,496.082c-0.409,-0.16 -0.843,0.049 -1.004,0.451l-8.07,21.496c-0.152,0.403 0.055,0.852 0.458,0.996c0.095,0.049 0.183,0.065 0.272,0.065c0.321,0 0.612,-0.194 0.74,-0.514l8.078,-21.498c0.144,-0.385 -0.064,-0.851 -0.474,-0.996" style="fill:#fff;fill-opacity:0.35;fill-rule:nonzero;"/><path d="M399.686,518.192c-0.378,-0.033 -0.811,0.289 -0.843,0.723l-2.457,35.615c-0.041,0.449 0.297,0.818 0.723,0.834l0.055,0c0.41,0 0.754,-0.305 0.78,-0.723l2.465,-35.615c0.032,-0.434 -0.288,-0.82 -0.723,-0.834" style="fill:#fff;fill-opacity:0.35;fill-rule:nonzero;"/><path d="M413.916,516.631c-0.393,0.16 -0.586,0.627 -0.417,1.029l10.568,25.405c0.12,0.304 0.417,0.48 0.724,0.48c0.095,0 0.208,-0.014 0.296,-0.062c0.402,-0.161 0.586,-0.612 0.434,-1.014l-10.576,-25.42c-0.161,-0.387 -0.619,-0.596 -1.029,-0.418" style="fill:#fff;fill-opacity:0.35;fill-rule:nonzero;"/><path d="M384.293,467.172l-23.924,14.568c-0.369,0.225 -0.481,0.707 -0.248,1.078c0.135,0.239 0.394,0.385 0.658,0.385c0.137,0 0.282,-0.047 0.418,-0.129l23.906,-14.566c0.377,-0.211 0.491,-0.709 0.266,-1.078c-0.234,-0.354 -0.707,-0.467 -1.076,-0.258" style="fill:#fff;fill-opacity:0.35;fill-rule:nonzero;"/><path d="M423.167,473.846c0.114,0 0.234,-0.033 0.346,-0.098c0.385,-0.191 0.545,-0.675 0.354,-1.06l-13.941,-27.125c-0.201,-0.403 -0.699,-0.547 -1.053,-0.354c-0.385,0.192 -0.538,0.676 -0.352,1.061l13.94,27.14c0.137,0.274 0.418,0.436 0.706,0.436" style="fill:#fff;fill-opacity:0.35;fill-rule:nonzero;"/><path d="M399.775,458.233c-0.354,0.258 -0.418,0.74 -0.17,1.094l14.617,19.92c0.159,0.226 0.393,0.338 0.634,0.338c0.152,0 0.321,-0.047 0.466,-0.161c0.346,-0.257 0.426,-0.738 0.151,-1.091l-14.598,-19.938c-0.265,-0.353 -0.755,-0.42 -1.1,-0.162" style="fill:#fff;fill-opacity:0.35;fill-rule:nonzero;"/><path d="M405.1,483.702c-0.378,-0.113 -0.852,0.129 -0.964,0.547l-7.725,26.883c-0.122,0.418 0.12,0.853 0.539,0.982c0.063,0.016 0.151,0.016 0.214,0.016c0.346,0 0.66,-0.227 0.755,-0.565l7.727,-26.883c0.121,-0.418 -0.12,-0.851 -0.546,-0.98" style="fill:#fff;fill-opacity:0.35;fill-rule:nonzero;"/><path d="M422.879,475.936c-0.41,0.16 -0.619,0.596 -0.45,1.012l12.35,32.078c0.114,0.322 0.418,0.498 0.723,0.498c0.098,0 0.193,-0.016 0.281,-0.049c0.419,-0.16 0.612,-0.609 0.45,-1.012l-12.342,-32.078c-0.162,-0.4 -0.604,-0.611 -1.012,-0.449" style="fill:#fff;fill-opacity:0.35;fill-rule:nonzero;"/><path d="M456.246,479.715c-0.41,-0.146 -0.859,0.062 -1.005,0.465l-9.171,25.631c-0.137,0.4 0.072,0.867 0.474,0.996c0.097,0.031 0.185,0.049 0.274,0.049c0.321,0 0.616,-0.194 0.739,-0.516l9.169,-25.629c0.137,-0.402 -0.072,-0.853 -0.48,-0.996" style="fill:#fff;fill-opacity:0.35;fill-rule:nonzero;"/><path d="M480.024,495.698c0.127,0 0.249,-0.033 0.368,-0.098c0.386,-0.211 0.523,-0.675 0.307,-1.06l-11.742,-21.578c-0.201,-0.387 -0.699,-0.514 -1.061,-0.307c-0.376,0.211 -0.522,0.676 -0.312,1.061l11.748,21.58c0.138,0.257 0.411,0.402 0.692,0.402" style="fill:#fff;fill-opacity:0.35;fill-rule:nonzero;"/><path d="M464.541,444.68c-0.193,-0.389 -0.674,-0.533 -1.062,-0.338c-0.376,0.209 -0.529,0.69 -0.328,1.059l24.5,47.224c0.146,0.274 0.411,0.434 0.701,0.434c0.12,0 0.241,-0.031 0.36,-0.096c0.394,-0.209 0.53,-0.676 0.339,-1.062l-24.51,-47.221Z" style="fill:#fff;fill-opacity:0.35;fill-rule:nonzero;"/><path d="M451.306,406.895c-0.24,0.352 -0.151,0.834 0.21,1.076l11.893,8.008c0.136,0.08 0.28,0.127 0.441,0.127c0.249,0 0.498,-0.111 0.643,-0.338c0.249,-0.367 0.152,-0.852 -0.209,-1.107l-11.894,-7.993c-0.36,-0.224 -0.843,-0.144 -1.084,0.227" style="fill:#fff;fill-opacity:0.35;fill-rule:nonzero;"/><path d="M463.32,442.588c0.145,0.145 0.336,0.209 0.529,0.209c0.217,0 0.426,-0.08 0.577,-0.258c0.291,-0.32 0.267,-0.818 -0.046,-1.109l-15.829,-14.373c-0.305,-0.291 -0.818,-0.274 -1.117,0.047c-0.272,0.322 -0.256,0.82 0.058,1.111l15.828,14.373Z" style="fill:#fff;fill-opacity:0.35;fill-rule:nonzero;"/><path d="M476.097,448.12c0.266,0 0.522,-0.129 0.675,-0.387l10.182,-16.56c0.225,-0.371 0.113,-0.867 -0.257,-1.094c-0.369,-0.209 -0.859,-0.111 -1.077,0.258l-10.19,16.576c-0.225,0.371 -0.112,0.853 0.249,1.078c0.138,0.08 0.281,0.129 0.418,0.129" style="fill:#fff;fill-opacity:0.35;fill-rule:nonzero;"/><path d="M540.533,369.961c-0.409,-0.129 -0.858,0.096 -0.988,0.514l-14.214,45.037c-0.119,0.418 0.105,0.851 0.514,0.98c0.081,0.033 0.153,0.033 0.241,0.033c0.321,0 0.65,-0.21 0.738,-0.546l14.215,-45.038c0.137,-0.418 -0.089,-0.867 -0.506,-0.98" style="fill:#fff;fill-opacity:0.35;fill-rule:nonzero;"/><path d="M504.806,412.618c-0.402,-0.178 -0.851,0.016 -1.028,0.418l-9.997,23.83c-0.162,0.4 0.015,0.867 0.417,1.027c0.104,0.032 0.209,0.065 0.304,0.065c0.314,0 0.595,-0.176 0.733,-0.483l9.987,-23.828c0.171,-0.402 -0.015,-0.869 -0.416,-1.029" style="fill:#fff;fill-opacity:0.35;fill-rule:nonzero;"/><path d="M534.84,485.1c0.056,0 0.104,0.016 0.151,0.016c0.37,0 0.701,-0.256 0.772,-0.643l11.797,-60.326c0.081,-0.418 -0.193,-0.838 -0.611,-0.916c-0.465,-0.082 -0.844,0.191 -0.932,0.625l-11.796,60.328c-0.08,0.418 0.192,0.836 0.619,0.916" style="fill:#fff;fill-opacity:0.35;fill-rule:nonzero;"/><path d="M504.372,436.383c-0.417,0.078 -0.724,0.482 -0.644,0.916l3.165,19.566c0.073,0.387 0.402,0.661 0.771,0.661c0.049,0 0.097,0 0.137,-0.016c0.425,-0.065 0.715,-0.467 0.65,-0.902l-3.18,-19.567c-0.064,-0.435 -0.482,-0.724 -0.899,-0.658" style="fill:#fff;fill-opacity:0.35;fill-rule:nonzero;"/><path d="M584.122,404.674l-12.721,28.25c-0.175,0.387 0,0.852 0.394,1.029c0.105,0.049 0.209,0.067 0.321,0.067c0.298,0 0.579,-0.18 0.716,-0.467l12.727,-28.234c0.177,-0.403 0,-0.854 -0.384,-1.032c-0.394,-0.175 -0.859,0 -1.053,0.387" style="fill:#fff;fill-opacity:0.35;fill-rule:nonzero;"/><path d="M571.314,396.17c-0.418,-0.129 -0.858,0.064 -1.004,0.48l-10.382,29.698c-0.154,0.418 0.063,0.869 0.481,1.013c0.079,0.016 0.169,0.034 0.249,0.034c0.328,0 0.635,-0.194 0.755,-0.516l10.381,-29.713c0.139,-0.402 -0.071,-0.853 -0.481,-0.996" style="fill:#fff;fill-opacity:0.35;fill-rule:nonzero;"/><path d="M457.739,581.09c-0.209,-0.369 -0.69,-0.514 -1.068,-0.305c-0.37,0.209 -0.515,0.692 -0.305,1.078l18.493,33.539c0.145,0.241 0.409,0.403 0.691,0.403c0.128,0 0.257,-0.033 0.378,-0.098c0.384,-0.207 0.513,-0.689 0.313,-1.076l-18.502,-33.541Z" style="fill:#fff;fill-opacity:0.35;fill-rule:nonzero;"/><path d="M470.081,573.549c-0.2,-0.385 -0.675,-0.547 -1.06,-0.354c-0.377,0.209 -0.538,0.692 -0.329,1.061l17.338,33.719c0.137,0.271 0.426,0.433 0.707,0.433c0.12,0 0.24,-0.033 0.362,-0.095c0.377,-0.194 0.538,-0.676 0.329,-1.063l-17.347,-33.701Z" style="fill:#fff;fill-opacity:0.35;fill-rule:nonzero;"/><path d="M377.756,591.204c-0.402,-0.096 -0.86,0.145 -0.955,0.58l-8.932,34.119c-0.103,0.418 0.146,0.836 0.572,0.948c0.055,0.017 0.128,0.033 0.192,0.033c0.353,0 0.666,-0.244 0.763,-0.581l8.921,-34.117c0.114,-0.436 -0.135,-0.87 -0.561,-0.983" style="fill:#fff;fill-opacity:0.35;fill-rule:nonzero;"/><path d="M332.937,575.639l-23.047,38.703c-0.209,0.369 -0.105,0.852 0.273,1.076c0.128,0.082 0.264,0.114 0.409,0.114c0.257,0 0.529,-0.145 0.667,-0.387l23.048,-38.686c0.223,-0.384 0.087,-0.867 -0.274,-1.093c-0.387,-0.225 -0.867,-0.096 -1.076,0.273" style="fill:#fff;fill-opacity:0.35;fill-rule:nonzero;"/><path d="M300.791,561.073l-7.412,13.795c-0.2,0.387 -0.065,0.853 0.321,1.062c0.121,0.065 0.241,0.096 0.37,0.096c0.265,0 0.546,-0.144 0.691,-0.418l7.403,-13.795c0.209,-0.386 0.064,-0.869 -0.312,-1.062c-0.386,-0.209 -0.861,-0.08 -1.061,0.322" style="fill:#fff;fill-opacity:0.35;fill-rule:nonzero;"/><path d="M270.268,540.893c-0.395,-0.145 -0.859,0.049 -1.02,0.451l-17.523,43.928c-0.161,0.402 0.041,0.851 0.435,1.027c0.096,0.033 0.2,0.049 0.288,0.049c0.313,0 0.603,-0.176 0.738,-0.482l17.531,-43.944c0.146,-0.4 -0.048,-0.851 -0.449,-1.029" style="fill:#fff;fill-opacity:0.35;fill-rule:nonzero;"/><path d="M246.433,532.743c-0.417,-0.129 -0.852,0.129 -0.971,0.545l-12.914,44.49c-0.136,0.418 0.114,0.852 0.531,0.965c0.072,0.033 0.136,0.033 0.216,0.033c0.347,0 0.659,-0.209 0.755,-0.564l12.913,-44.489c0.128,-0.402 -0.111,-0.837 -0.53,-0.98" style="fill:#fff;fill-opacity:0.35;fill-rule:nonzero;"/><path d="M226.67,534.43c-0.426,-0.096 -0.843,0.176 -0.932,0.596l-7.468,34.568c-0.088,0.418 0.176,0.836 0.602,0.934c0.057,0 0.112,0.015 0.168,0.015c0.362,0 0.676,-0.258 0.764,-0.627l7.461,-34.552c0.094,-0.436 -0.177,-0.854 -0.595,-0.934" style="fill:#fff;fill-opacity:0.35;fill-rule:nonzero;"/><path d="M515.535,537.967c-0.401,-0.193 -0.868,0 -1.037,0.387c-0.185,0.4 0,0.867 0.393,1.045l36.137,15.933c0.112,0.031 0.217,0.065 0.314,0.065c0.304,0 0.594,-0.178 0.721,-0.467c0.179,-0.401 -0.007,-0.867 -0.392,-1.045l-36.136,-15.918Z" style="fill:#fff;fill-opacity:0.35;fill-rule:nonzero;"/><path d="M510.491,550.67c-0.37,-0.209 -0.845,-0.064 -1.067,0.32c-0.203,0.387 -0.065,0.854 0.32,1.061l36.675,19.89c0.104,0.065 0.241,0.096 0.37,0.096c0.272,0 0.545,-0.144 0.682,-0.402c0.209,-0.385 0.073,-0.867 -0.314,-1.076l-36.666,-19.889Z" style="fill:#fff;fill-opacity:0.35;fill-rule:nonzero;"/><path d="M571.804,316.661c0.161,0.143 0.346,0.209 0.538,0.209c0.209,0 0.417,-0.082 0.579,-0.242c0.296,-0.305 0.28,-0.805 -0.041,-1.11l-29.873,-28.378c-0.313,-0.29 -0.811,-0.29 -1.108,0.031c-0.297,0.306 -0.281,0.804 0.024,1.111l29.881,28.379Z" style="fill:#fff;fill-opacity:0.35;fill-rule:nonzero;"/><path d="M560.794,321.95c0.33,-0.289 0.368,-0.787 0.081,-1.109l-23.49,-26.403c-0.306,-0.336 -0.795,-0.369 -1.115,-0.064c-0.322,0.291 -0.346,0.789 -0.066,1.111l23.489,26.401c0.153,0.177 0.379,0.273 0.586,0.273c0.186,0 0.37,-0.08 0.515,-0.209" style="fill:#fff;fill-opacity:0.35;fill-rule:nonzero;"/><path d="M676.159,275.659c-0.321,-0.289 -0.826,-0.24 -1.091,0.098l-30.307,35.34c-0.282,0.337 -0.241,0.82 0.081,1.109c0.152,0.129 0.329,0.193 0.512,0.193c0.218,0 0.451,-0.095 0.586,-0.273l30.317,-35.358c0.281,-0.338 0.24,-0.82 -0.098,-1.109" style="fill:#fff;fill-opacity:0.35;fill-rule:nonzero;"/><path d="M678.874,276.012c-0.425,-0.096 -0.835,0.209 -0.898,0.645l-5.174,30.484c-0.079,0.435 0.21,0.836 0.635,0.9c0.048,0.016 0.089,0.016 0.129,0.016c0.385,0 0.723,-0.274 0.778,-0.643l5.173,-30.5c0.08,-0.435 -0.209,-0.838 -0.643,-0.902" style="fill:#fff;fill-opacity:0.35;fill-rule:nonzero;"/><path d="M690.511,277.973c-0.442,0 -0.788,0.355 -0.788,0.789l0,30.598c0,0.433 0.346,0.771 0.788,0.771c0.434,0 0.778,-0.338 0.778,-0.771l0,-30.598c0,-0.434 -0.344,-0.789 -0.778,-0.789" style="fill:#fff;fill-opacity:0.35;fill-rule:nonzero;"/><path d="M675.622,310.036c-0.434,0.016 -0.771,0.385 -0.747,0.82l2.031,52.176c0.016,0.434 0.37,0.754 0.779,0.754l0.041,0c0.426,-0.016 0.771,-0.385 0.753,-0.803l-2.039,-52.191c-0.023,-0.434 -0.328,-0.789 -0.818,-0.756" style="fill:#fff;fill-opacity:0.35;fill-rule:nonzero;"/><path d="M714.577,334.346l-15.426,-27.463c-0.21,-0.369 -0.683,-0.514 -1.067,-0.289c-0.371,0.209 -0.516,0.691 -0.298,1.061l15.427,27.462c0.135,0.258 0.4,0.403 0.682,0.403c0.12,0 0.265,-0.033 0.385,-0.096c0.378,-0.209 0.506,-0.691 0.297,-1.078" style="fill:#fff;fill-opacity:0.35;fill-rule:nonzero;"/><path d="M209.934,316.403c-0.184,-2.059 -0.329,-3.957 -0.432,-5.74c-0.755,-13.25 -27.939,-43.719 -59.402,-78.996c-5.999,-6.719 -12.094,-13.569 -18.093,-20.387l-60.236,-70.715c-0.282,-0.338 -0.772,-0.386 -1.108,-0.096c-0.338,0.274 -0.362,0.788 -0.088,1.11l60.243,70.73c6.015,6.834 12.112,13.682 18.117,20.405c29.97,33.603 58.27,65.326 58.992,78.044c0.105,1.786 0.265,3.7 0.449,5.774c0.755,8.986 1.696,20.533 -0.754,36.225c-2.667,0.998 -9.958,1.607 -18.397,2.298c-16.665,1.352 -35.552,2.895 -38.595,8.459c-4.409,8.086 -49.862,94.719 -50.311,95.604c-0.201,0.387 -0.048,0.851 0.328,1.06c0.113,0.065 0.233,0.098 0.37,0.098c0.273,0 0.546,-0.162 0.683,-0.435c0.458,-0.868 45.91,-87.485 50.302,-95.573c1.671,-3.052 10.321,-4.838 20.174,-6.029l-56.415,112.986c-0.192,0.385 -0.04,0.867 0.353,1.061c0.105,0.049 0.225,0.08 0.345,0.08c0.29,0 0.571,-0.16 0.7,-0.434l56.862,-113.918c5.165,-0.578 10.529,-1.013 15.324,-1.4c8.078,-0.658 14.678,-1.205 17.987,-2.106c-2.079,12.381 -6.279,27.254 -14.286,45.473c-21.014,47.705 -49.652,94.061 -49.941,94.526c-0.225,0.371 -0.112,0.853 0.266,1.078c0.127,0.08 0.264,0.113 0.41,0.113c0.263,0 0.512,-0.131 0.665,-0.371c0.29,-0.449 28.974,-46.902 50.03,-94.736c18.927,-42.963 16.839,-67.772 15.458,-84.188" style="fill:#fff;fill-opacity:0.35;fill-rule:nonzero;"/><path d="M203.976,391.684l14.31,17.992c0.161,0.194 0.378,0.289 0.611,0.289c0.184,0 0.352,-0.064 0.506,-0.177c0.337,-0.274 0.386,-0.756 0.111,-1.11l-14.904,-18.715c4.377,-12.125 6.971,-23.025 8.424,-32.752l23.209,32.879c0.152,0.211 0.401,0.323 0.642,0.323c0.161,0 0.322,-0.049 0.458,-0.145c0.354,-0.24 0.433,-0.74 0.184,-1.094l-24.147,-34.215c2.321,-17.365 1.075,-30.839 0.143,-40.63c-0.24,-2.542 -0.44,-4.825 -0.552,-6.819c-0.756,-13.248 -27.931,-43.701 -59.378,-78.961c-6.007,-6.738 -12.11,-13.588 -18.126,-20.422l-63.688,-75.039c-0.299,-0.336 -0.78,-0.369 -1.116,-0.08c-0.338,0.274 -0.362,0.772 -0.098,1.11l63.706,75.039c6.031,6.849 12.134,13.699 18.149,20.437c29.962,33.588 58.253,65.311 58.977,78.012c0.12,2.01 0.329,4.31 0.569,6.867c0.915,9.744 2.176,23.17 -0.176,40.518c-0.008,0.017 -0.008,0.033 -0.008,0.082c-1.848,13.472 -5.863,29.295 -13.91,47.591c-21.023,47.723 -49.643,94.061 -49.933,94.528c-0.224,0.385 -0.12,0.853 0.266,1.076c0.129,0.098 0.264,0.129 0.4,0.129c0.266,0 0.522,-0.129 0.677,-0.369c0.287,-0.467 28.957,-46.901 50.021,-94.737c1.758,-4.003 3.269,-7.83 4.673,-11.607" style="fill:#fff;fill-opacity:0.35;fill-rule:nonzero;"/></g></svg>