<svg width="1918" height="399" viewBox="0 0 1918 399" fill="none" xmlns="http://www.w3.org/2000/svg">
<path d="M1867.75 0.00878906C1855.9 0.00878906 1844.93 5.09962 1835.12 15.0995C1826.98 23.4137 1821.36 33.387 1818.01 39.3339L1817.98 39.3945C1811.82 50.3413 1799.03 73.0985 1775.91 73.0985C1752.82 73.0985 1740.03 50.3413 1733.87 39.3945L1733.82 39.3339C1730.48 33.387 1724.87 23.4137 1716.72 15.0995C1713.82 12.1412 1710.82 9.65636 1707.72 7.58442L1707.69 7.4973C1707.48 7.34958 1707.24 7.25867 1707.02 7.11095C1705.62 6.19429 1704.19 5.36476 1702.75 4.62614C1702.43 4.44811 1702.09 4.27008 1701.77 4.12236C1700.05 3.29283 1698.31 2.58451 1696.54 2.02391C1696.19 1.9027 1695.84 1.81558 1695.5 1.72467C1694.04 1.2815 1692.58 0.955743 1691.09 0.690596C1690.61 0.603476 1690.11 0.512567 1689.61 0.425448C1687.79 0.186815 1685.96 0.00878906 1684.09 0.00878906C1676.68 0.00878906 1669.62 1.9936 1662.98 5.92915H1662.97C1662.61 6.13369 1662.26 6.40262 1661.91 6.60717C1658.3 8.88743 1654.82 11.6677 1651.47 15.0995C1648.85 17.7623 1646.53 20.6032 1644.42 23.4137C1639.98 29.3909 1636.63 35.2809 1634.35 39.3339L1634.33 39.3642L1634.32 39.3945C1631.51 44.3944 1627.29 51.8223 1621.37 58.451C1614.31 66.3486 1604.82 73.0985 1592.26 73.0985C1572.41 73.0985 1560.18 56.2882 1553.22 44.6331C1553.22 44.3073 1553.22 44.0119 1553.22 43.6861C1552.31 42.1445 1551.49 40.6975 1550.78 39.4248L1550.73 39.3339C1547.38 33.387 1541.78 23.4137 1533.62 15.0995C1523.83 5.09962 1512.85 0.00878906 1500.99 0.00878906H1500.44H1500.43C1499.26 0.00878906 1498.1 0.129998 1496.95 0.247421H1496.56C1491.29 0.777715 1486.21 2.28906 1481.34 4.86098C1476.62 7.34958 1472.1 10.7207 1467.81 15.0995C1465.91 17.0237 1464.16 19.0653 1462.53 21.1069C1457.17 27.853 1453.26 34.7772 1450.69 39.3339L1450.65 39.3945C1449.93 40.6975 1449.12 42.1445 1448.21 43.6861C1441.39 55.3147 1429.12 72.8902 1408.9 73.0682C1385.97 72.8902 1373.24 50.2845 1367.11 39.3945L1367.07 39.3339C1363.73 33.387 1358.12 23.4137 1349.96 15.0995C1347.07 12.1412 1344.05 9.65636 1340.96 7.58442L1340.94 7.4973C1340.72 7.34958 1340.48 7.25867 1340.26 7.11095C1338.85 6.19429 1337.43 5.36476 1335.99 4.62614C1335.66 4.44811 1335.34 4.27008 1335.01 4.12236C1333.3 3.29283 1331.55 2.58451 1329.79 2.02391C1329.44 1.9027 1329.08 1.81558 1328.73 1.72467C1327.28 1.2815 1325.82 0.955743 1324.33 0.690596C1323.84 0.603476 1323.35 0.512567 1322.85 0.425448C1322.51 0.395145 1322.15 0.395146 1321.81 0.364843C1320.78 0.217118 1319.73 0.156514 1318.68 0.129999C1318.23 0.0996969 1317.79 0.00878906 1317.33 0.00878906H1316.78C1315.31 0.00878906 1313.88 0.186816 1312.45 0.334541C1312.24 0.364844 1312.02 0.364843 1311.81 0.395146C1305.29 1.19437 1299.05 3.53146 1293.18 7.4973L1292.99 8.17532C1290.15 10.1601 1287.37 12.3798 1284.7 15.0995C1282.09 17.7623 1279.77 20.6032 1277.67 23.4137C1273.22 29.3909 1269.87 35.2809 1267.6 39.3339L1267.57 39.3642L1267.56 39.3945C1264.75 44.3944 1260.54 51.8223 1254.62 58.451C1247.56 66.3486 1238.06 73.0985 1225.5 73.0985C1202.41 73.0985 1189.61 50.3413 1183.46 39.3945L1183.41 39.3339C1180.07 33.387 1174.46 23.4137 1166.3 15.0995C1156.51 5.09962 1145.53 0.00878906 1133.68 0.00878906H1133.67C1127.01 0.00878906 1120.64 1.66785 1114.58 4.86098C1109.86 7.34958 1105.34 10.7207 1101.05 15.0995C1099.15 17.0237 1097.4 19.0653 1095.77 21.1069C1090.42 27.853 1086.51 34.7772 1083.94 39.3339L1083.89 39.3945C1083.17 40.6975 1082.36 42.1445 1081.45 43.6861C1074.6 55.3715 1062.24 73.0985 1041.84 73.0985C1018.75 73.0985 1005.95 50.3413 999.795 39.4248L999.754 39.3339C996.406 33.387 990.8 23.4137 982.645 15.0995C972.851 5.09962 961.871 0.00878906 950.015 0.00878906H949.965C948.089 0.00878906 946.243 0.186817 944.409 0.455752C943.985 0.512569 943.56 0.573174 943.136 0.660293C941.51 0.929228 939.901 1.3118 938.312 1.78527C938.104 1.84588 937.888 1.9027 937.68 1.9633C935.8 2.5845 933.949 3.32313 932.128 4.21326L931.833 4.36099C930.082 5.21704 928.352 6.2246 926.655 7.37609L926.414 7.4973L926.41 7.5276C923.29 9.62606 920.255 12.1109 917.339 15.0995C909.184 23.4137 903.578 33.387 900.23 39.3339L900.188 39.3945C894.038 50.3413 881.237 73.0985 858.139 73.0985C835.037 73.0985 822.24 50.3413 816.085 39.3945L816.044 39.3339C812.7 33.387 807.094 23.4137 798.939 15.0995C796.04 12.1412 793.029 9.65636 789.931 7.58442L789.914 7.4973C789.69 7.34958 789.457 7.25867 789.232 7.11095C787.831 6.19429 786.408 5.36476 784.965 4.62614C784.637 4.44811 784.317 4.27008 783.988 4.12236C782.27 3.29283 780.528 2.58451 778.76 2.02391C778.411 1.9027 778.058 1.81558 777.708 1.72467C776.257 1.2815 774.793 0.955743 773.308 0.690596C772.813 0.603476 772.323 0.512567 771.824 0.425448C770.006 0.186815 768.172 0.00878906 766.309 0.00878906C758.902 0.00878906 751.845 1.9936 745.195 5.92915H745.187C744.829 6.13369 744.484 6.40262 744.13 6.60717C740.52 8.88743 737.027 11.6677 733.683 15.0995C731.068 17.7623 728.743 20.6032 726.647 23.4137C722.193 29.3909 718.849 35.2809 716.574 39.3339L716.549 39.3642L716.533 39.3945C713.725 44.3944 709.513 51.8223 703.595 58.451C696.537 66.3486 687.039 73.0985 674.479 73.0985C654.625 73.0985 642.394 56.2882 635.441 44.6331C635.436 44.3073 635.432 44.0119 635.432 43.6861C634.526 42.1445 633.711 40.6975 632.991 39.4248L632.945 39.3339C629.597 33.387 623.991 23.4137 615.836 15.0995C606.038 5.09962 595.063 0.00878906 583.206 0.00878906H582.653H582.649C581.472 0.00878906 580.32 0.129998 579.16 0.247421H578.773C573.508 0.777715 568.422 2.28906 563.556 4.86098C558.836 7.34958 554.311 10.7207 550.023 15.0995C548.123 17.0237 546.372 19.0653 544.746 21.1069C539.389 27.853 535.48 34.7772 532.91 39.3339L532.868 39.3945C532.149 40.6975 531.334 42.1445 530.423 43.6861C523.607 55.3147 511.33 72.8902 491.114 73.0682C468.187 72.8902 455.453 50.2845 449.327 39.3945L449.285 39.3339C445.938 33.387 440.331 23.4137 432.176 15.0995C429.282 12.1412 426.266 9.65636 423.172 7.58442L423.152 7.4973C422.931 7.34958 422.698 7.25867 422.474 7.11095C421.068 6.19429 419.646 5.36476 418.203 4.62614C417.874 4.44811 417.554 4.27008 417.225 4.12236C415.512 3.29283 413.769 2.58451 412.002 2.02391C411.653 1.9027 411.299 1.81558 410.95 1.72467C409.494 1.2815 408.03 0.955743 406.55 0.690596C406.055 0.603476 405.56 0.512567 405.065 0.425448C404.724 0.395145 404.371 0.395146 404.025 0.364843C402.994 0.217118 401.946 0.156514 400.898 0.129999C400.445 0.0996969 400.004 0.00878906 399.55 0.00878906H398.989C397.529 0.00878906 396.095 0.186816 394.66 0.334541C394.448 0.364844 394.231 0.364843 394.019 0.395146C387.507 1.19437 381.269 3.53146 375.388 7.4973L375.201 8.17532C372.365 10.1601 369.586 12.3798 366.921 15.0995C364.309 17.7623 361.984 20.6032 359.888 23.4137C355.434 29.3909 352.086 35.2809 349.812 39.3339L349.791 39.3642L349.77 39.3945C346.963 44.3944 342.754 51.8223 336.832 58.451C329.774 66.3486 320.28 73.0985 307.716 73.0985C284.618 73.0985 271.822 50.3413 265.671 39.3945L265.63 39.3339C262.282 33.387 256.676 23.4137 248.52 15.0995C238.726 5.09962 227.747 0.00878906 215.895 0.00878906H215.891H215.886C209.224 0.00878906 202.849 1.66785 196.793 4.86098C192.077 7.34958 187.553 10.7207 183.265 15.0995C181.36 17.0237 179.613 19.0653 177.987 21.1069C172.631 27.853 168.717 34.7772 166.147 39.3339L166.11 39.3945C165.386 40.6975 164.575 42.1445 163.66 43.6861C156.811 55.3715 144.455 73.0985 124.061 73.0985C100.963 73.0985 88.162 50.3413 82.0111 39.4248L81.9695 39.3339C78.6176 33.387 73.0157 23.4137 64.8603 15.0995C55.0622 5.09962 44.0872 0.00878906 32.2305 0.00878906H0V243.179H1920V47.0005V0.00878906H1867.75V0.00878906Z" fill="#146858"/>
<rect x="0.120789" y="230.886" width="1919.43" height="167.615" fill="#146858"/>
</svg>
